<svg width="18" height="13" viewBox="0 0 18 13" fill="none" xmlns="http://www.w3.org/2000/svg">
<path d="M18 2.6C18 1.91044 17.7275 1.24902 17.2428 0.761521C16.7578 0.273835 16.1003 0 15.4146 0H2.58541C1.89972 0 1.2422 0.273854 0.757249 0.761521C0.272484 1.24902 0 1.91044 0 2.6V10.4C0 11.0896 0.272498 11.751 0.757249 12.2385C1.2422 12.7262 1.89972 13 2.58541 13H15.4146C16.1003 13 16.7578 12.7261 17.2428 12.2385C17.7275 11.751 18 11.0896 18 10.4V2.6ZM16.9659 2.6L16.9657 10.4C16.9657 10.5986 16.9281 10.7954 16.8547 10.9798L12.2009 5.39491L16.9142 2.21C16.9478 2.33714 16.9653 2.46826 16.966 2.59993L16.9659 2.6ZM15.4146 1.03991C15.7439 1.041 16.0645 1.14764 16.3298 1.34423L9.00019 6.29955L1.67055 1.35955C1.93385 1.15733 2.25466 1.04526 2.58578 1.03963L15.4146 1.03991ZM1.14543 10.9719C1.07293 10.79 1.03524 10.5959 1.03434 10.3999V2.59991C1.03524 2.46552 1.05346 2.33186 1.08862 2.20218L5.79407 5.37947L1.14543 10.9719ZM2.58546 11.96C2.32522 11.9596 2.06911 11.8934 1.841 11.7675L6.65494 5.97974L8.72331 7.36805C8.89771 7.48576 9.12548 7.48576 9.29986 7.36805L11.3682 5.97974L16.1614 11.7596C15.9331 11.8855 15.677 11.9517 15.4168 11.9521L2.58546 11.96Z" fill="#807A7A"/>
</svg>
