<svg width="26" height="27" viewBox="0 0 26 27" fill="none" xmlns="http://www.w3.org/2000/svg">
<path d="M13.0005 5.02721C14.8632 4.99855 16.6646 5.69251 18.0267 6.96346L21.6955 3.37596C19.3417 1.17039 16.2259 -0.0390273 13.0005 0.000960935C10.5905 0.000404079 8.22797 0.670256 6.17696 1.93561C4.12596 3.20096 2.46738 5.01192 1.38672 7.16596L5.59047 10.4297C6.10448 8.86678 7.09614 7.50463 8.42559 6.53535C9.75505 5.56607 11.3552 5.03856 13.0005 5.02721Z" fill="#E43E2B"/>
<path d="M25.48 13.2898C25.4953 12.3962 25.403 11.5039 25.205 10.6323H13V15.4573H20.165C20.0291 16.3033 19.7235 17.113 19.2666 17.8377C18.8097 18.5625 18.2109 19.1874 17.5062 19.6748L21.6087 22.8523C22.8873 21.6179 23.8928 20.1291 24.5602 18.482C25.2277 16.8349 25.5423 15.0661 25.4837 13.2898H25.48Z" fill="#3B7DED"/>
<path d="M5.60543 15.5718C5.3212 14.7442 5.17467 13.8756 5.17168 13.0005C5.17686 12.1269 5.31814 11.2594 5.59043 10.4293L1.38668 7.16553C0.47492 8.9757 0 10.9743 0 13.0012C0 15.028 0.47492 17.0266 1.38668 18.8368L5.60543 15.5718Z" fill="#F0B501"/>
<path d="M13.0004 26.001C16.167 26.0906 19.2476 24.9638 21.6091 22.8523L17.5066 19.6748C16.1764 20.5665 14.6011 21.021 13.0004 20.9748C11.3565 20.965 9.7575 20.4379 8.43013 19.4681C7.10275 18.4984 6.11443 17.1353 5.60536 15.5723L1.40161 18.8373C2.47936 20.9903 4.13522 22.8009 6.18375 24.0661C8.23229 25.3314 10.5926 26.0013 13.0004 26.001Z" fill="#2BA24C"/>
</svg>
