<?xml version="1.0" encoding="UTF-8" standalone="no"?>
<!-- Created with Inkscape (http://www.inkscape.org/) -->

<svg
   xmlns:dc="http://purl.org/dc/elements/1.1/"
   xmlns:cc="http://creativecommons.org/ns#"
   xmlns:rdf="http://www.w3.org/1999/02/22-rdf-syntax-ns#"
   xmlns:svg="http://www.w3.org/2000/svg"
   xmlns="http://www.w3.org/2000/svg"
   xmlns:sodipodi="http://sodipodi.sourceforge.net/DTD/sodipodi-0.dtd"
   xmlns:inkscape="http://www.inkscape.org/namespaces/inkscape"
   width="1280"
   height="1280"
   viewBox="0 0 338.66666 338.66667"
   version="1.1"
   id="svg8"
   sodipodi:docname="immer icon.svg"
   inkscape:version="0.92.4 (5da689c313, 2019-01-14)">
  <defs
     id="defs2" />
  <sodipodi:namedview
     id="base"
     pagecolor="#ffffff"
     bordercolor="#666666"
     borderopacity="1.0"
     inkscape:pageopacity="0.0"
     inkscape:pageshadow="2"
     inkscape:zoom="0.7"
     inkscape:cx="503.03417"
     inkscape:cy="618.43113"
     inkscape:document-units="mm"
     inkscape:current-layer="layer1"
     showgrid="false"
     units="px"
     showguides="true"
     inkscape:guide-bbox="true"
     inkscape:window-width="1920"
     inkscape:window-height="991"
     inkscape:window-x="-9"
     inkscape:window-y="-9"
     inkscape:window-maximized="1">
    <sodipodi:guide
       position="472.6411,607.06992"
       orientation="0,1"
       id="guide858"
       inkscape:locked="false" />
    <sodipodi:guide
       position="395.17555,452.05269"
       orientation="0,1"
       id="guide860"
       inkscape:locked="false" />
    <sodipodi:guide
       position="375.94088,510.59402"
       orientation="1,0"
       id="guide862"
       inkscape:locked="false" />
    <sodipodi:guide
       position="472.6411,413.07341"
       orientation="1,0"
       id="guide864"
       inkscape:locked="false" />
    <sodipodi:guide
       position="472.6411,413.04869"
       orientation="0,1"
       id="guide866"
       inkscape:locked="false" />
    <sodipodi:guide
       position="472.64109,607.06993"
       orientation="0,1"
       id="guide868"
       inkscape:locked="false" />
    <sodipodi:guide
       position="543.05845,510.59402"
       orientation="0,1"
       id="guide870"
       inkscape:locked="false" />
    <sodipodi:guide
       position="569.96313,510.59403"
       orientation="1,0"
       id="guide872"
       inkscape:locked="false" />
    <sodipodi:guide
       position="525.1979,607.06993"
       orientation="1,0"
       id="guide874"
       inkscape:locked="false" />
    <sodipodi:guide
       position="569.96312,560.3875"
       orientation="0,1"
       id="guide876"
       inkscape:locked="false" />
    <sodipodi:guide
       position="424.92082,607.06993"
       orientation="1,0"
       id="guide878"
       inkscape:locked="false" />
  </sodipodi:namedview>
  <metadata
     id="metadata5">
    <rdf:RDF>
      <cc:Work
         rdf:about="">
        <dc:format>image/svg+xml</dc:format>
        <dc:type
           rdf:resource="http://purl.org/dc/dcmitype/StillImage" />
        <dc:title></dc:title>
      </cc:Work>
    </rdf:RDF>
  </metadata>
  <g
     inkscape:label="Layer 1"
     inkscape:groupmode="layer"
     id="layer1"
     transform="translate(0,41.666687)">
    <text
       xml:space="preserve"
       style="font-style:normal;font-variant:normal;font-weight:normal;font-stretch:normal;font-size:86.70230865px;line-height:1.25;font-family:'Ink Free';-inkscape-font-specification:'Ink Free';letter-spacing:0px;word-spacing:0px;fill:#000000;fill-opacity:1;stroke:none;stroke-width:1.80629802"
       x="441.36469"
       y="202.41855"
       id="text884"><tspan
         sodipodi:role="line"
         id="tspan882"
         x="441.36469"
         y="202.41855"
         style="font-style:normal;font-variant:normal;font-weight:normal;font-stretch:normal;font-family:OldSansBlack;-inkscape-font-specification:OldSansBlack;stroke-width:1.80629802">immer</tspan></text>
    <path
       inkscape:connector-curvature="0"
       id="path886"
       style="font-style:normal;font-variant:normal;font-weight:normal;font-stretch:normal;font-size:86.70230865px;line-height:1.25;font-family:OldSansBlack;-inkscape-font-specification:OldSansBlack;letter-spacing:0px;word-spacing:0px;fill:#000000;fill-opacity:1;stroke:none;stroke-width:11.37017155"
       d="m -231.09704,333.70987 h 79.68217 V 37.90348 h -79.68217 z"
       sodipodi:nodetypes="ccccc" />
    <circle
       style="opacity:1;vector-effect:none;fill:#00ff00;fill-opacity:1;stroke:none;stroke-width:146.44831848;stroke-linecap:butt;stroke-linejoin:miter;stroke-miterlimit:4;stroke-dasharray:none;stroke-dashoffset:0;stroke-opacity:1;paint-order:markers stroke fill"
       id="path880"
       cx="169.33333"
       cy="127.66665"
       r="100" />
    <path
       style="opacity:1;vector-effect:none;fill:#999999;fill-opacity:1;stroke:none;stroke-width:11.73752403;stroke-linecap:butt;stroke-linejoin:miter;stroke-miterlimit:4;stroke-dasharray:none;stroke-dashoffset:0;stroke-opacity:1;paint-order:markers stroke fill"
       d="M 640 40 A 599.99999 599.99999 0 0 0 40 640 A 599.99999 599.99999 0 0 0 640 1240 A 599.99999 599.99999 0 0 0 1240 640 A 599.99999 599.99999 0 0 0 640 40 z M 633.95117 364.9375 C 785.62448 364.9375 909.01172 488.33133 909.01172 640 L 909.00195 640 C 901.79829 640.06463 856.04828 640.06463 845.14453 640 C 845.14453 523.53939 750.40624 428.80078 633.94531 428.80078 C 517.48446 428.80078 422.74414 523.53939 422.74414 640 C 411.87989 640.06463 374.75628 640.06463 358.88867 640 C 358.86713 488.32821 482.27798 364.9375 633.95117 364.9375 z M 640 519.28125 C 706.63504 519.28125 760.71875 573.36489 760.71875 640 C 760.71875 706.63504 706.63504 760.71875 640 760.71875 C 573.36496 760.71875 519.28125 706.63504 519.28125 640 C 519.28125 573.36489 573.36496 519.28125 640 519.28125 z "
       transform="matrix(0.26458333,0,0,0.26458333,0,-41.666687)"
       id="path819" />
    <path
       id="path846"
       d="m -305.97879,-274.79871 a 158.75,158.75 0 0 0 -158.75,158.75 158.75,158.75 0 0 0 158.75,158.749989 158.75,158.75 0 0 0 158.75,-158.749989 158.75,158.75 0 0 0 -158.75,-158.75 z m -1.60042,85.97304 c 40.13023,0 72.77644,32.64795 72.77644,72.77696 h -0.003 c -1.90596,0.0171 -14.01065,0.0171 -16.89561,0 0,-30.81354 -25.06617,-55.8798 -55.87979,-55.8798 -30.8136,0 -55.88031,25.06626 -55.88031,55.8798 -2.8745,0.0171 -12.69679,0.0171 -16.8951,0 -0.006,-40.12983 32.64676,-72.77696 72.77696,-72.77696 z m 1.60042,40.83679 c 17.63052,0 31.94017,14.30963 31.94017,31.94017 0,17.630518 -14.30965,31.940158 -31.94017,31.940158 -17.63052,0 -31.94017,-14.30964 -31.94017,-31.940158 0,-17.63054 14.30965,-31.94017 31.94017,-31.94017 z"
       style="opacity:1;vector-effect:none;fill:#999999;fill-opacity:1;stroke:none;stroke-width:3.10555315;stroke-linecap:butt;stroke-linejoin:miter;stroke-miterlimit:4;stroke-dasharray:none;stroke-dashoffset:0;stroke-opacity:1;paint-order:markers stroke fill"
       inkscape:connector-curvature="0" />
    <path
       sodipodi:nodetypes="ssssssssss"
       style="fill:#000000;fill-opacity:1;fill-rule:evenodd;stroke:none;stroke-width:0.50402713"
       inkscape:connector-curvature="0"
       d="m 20.512037,-175.30225 c 43.657299,58.53602 126.622353,70.61525 185.158343,26.95798 58.53602,-43.65726 70.61525,-126.62232 26.958,-185.15834 -43.65728,-58.53602 -126.62235,-70.61525 -185.158343,-26.958 -58.53602,43.65728 -70.61524,126.62233 -26.958,185.15836 z m 28.28222,-21.09339 c 32.013729,42.92424 92.857723,51.78351 135.782763,19.76918 42.92504,-32.01431 51.78349,-92.85772 19.76916,-135.78279 -32.01435,-42.92504 -92.85771,-51.78351 -135.782784,-19.76916 -42.925069,32.01432 -51.783459,92.85766 -19.769139,135.78277 z"
       id="path844" />
    <path
       inkscape:connector-curvature="0"
       style="opacity:1;vector-effect:none;fill:#999999;fill-opacity:1;stroke:none;stroke-width:3.10555315;stroke-linecap:butt;stroke-linejoin:miter;stroke-miterlimit:4;stroke-dasharray:none;stroke-dashoffset:0;stroke-opacity:1;paint-order:markers stroke fill"
       d="m 472.64268,-310.07277 c -47.72186,-0.003 -96.7018,46.68525 -96.70685,96.48059 -0.006,58.53947 48.98499,97.54347 96.70671,97.56907 52.55536,0.0282 97.30659,-39.0296 97.31416,-97.58805 0.006,-49.77636 -44.7588,-96.45878 -97.31402,-96.46161 z m -2.36067,23.70177 c 40.13023,0 72.77644,32.64795 72.77644,72.77696 h -0.003 c -1.90596,0.0171 -14.01065,0.0171 -16.89561,0 0,-30.81354 -25.06617,-55.8798 -55.87979,-55.8798 -30.8136,0 -55.88031,25.06626 -55.88031,55.8798 -2.8745,0.0171 -12.69678,0.0171 -16.89509,0 -0.006,-40.12983 32.64675,-72.77696 72.77695,-72.77696 z m 1.60042,40.83679 c 17.63052,0 31.94017,14.30963 31.94017,31.94017 0,17.63052 -14.30965,31.94016 -31.94017,31.94016 -17.63052,0 -31.94017,-14.30964 -31.94017,-31.94016 0,-17.63054 14.30965,-31.94017 31.94017,-31.94017 z"
       id="path853"
       sodipodi:nodetypes="sssssscccsccsssssss" />
    <path
       id="path856"
       d="m 366.89333,-133.95932 c 43.6573,58.536017 126.62235,70.615247 185.15834,26.95798 58.53602,-43.65726 70.61525,-126.62232 26.958,-185.15834 -43.65728,-58.53602 -126.62235,-70.61525 -185.15834,-26.958 -58.53602,43.65728 -70.61524,126.62233 -26.958,185.15836 z m 28.28222,-21.09339 c 32.01373,42.92424 92.85772,51.78351 135.78276,19.76918 42.92504,-32.01431 51.78349,-92.85772 19.76916,-135.78279 -32.01435,-42.92504 -92.85771,-51.78351 -135.78278,-19.76916 -42.92507,32.01432 -51.78346,92.85766 -19.76914,135.78277 z"
       inkscape:connector-curvature="0"
       style="fill:#000000;fill-opacity:1;fill-rule:evenodd;stroke:none;stroke-width:0.50402713"
       sodipodi:nodetypes="ssssssssss" />
    <path
       sodipodi:nodetypes="ssssssssss"
       style="fill:#ff0000;fill-opacity:1;fill-rule:evenodd;stroke:none;stroke-width:0.60483259"
       inkscape:connector-curvature="0"
       d="m 42.063522,222.58686 c 52.388766,70.24322 151.946828,84.7383 222.190018,32.34957 70.24322,-52.38872 84.7383,-151.94678 32.34959,-222.189999 C 244.2144,-37.496793 144.65631,-51.991866 74.413119,0.39683397 4.1698955,52.785563 -10.325164,152.34363 42.063522,222.58686 Z M 76.00219,197.27477 C 114.41866,248.78389 187.43145,259.41499 238.9415,220.9978 290.45155,182.58063 301.08169,109.56854 262.66449,58.058463 224.24728,6.548417 151.23524,-4.081754 99.725158,34.335469 48.215072,72.752653 37.585004,145.76466 76.00219,197.27477 Z"
       id="path882" />
    <circle
       r="100"
       cy="283.77081"
       cx="66.145828"
       id="circle885"
       style="opacity:1;vector-effect:none;fill:#00ff00;fill-opacity:1;stroke:none;stroke-width:38.74778366;stroke-linecap:butt;stroke-linejoin:miter;stroke-miterlimit:4;stroke-dasharray:none;stroke-dashoffset:0;stroke-opacity:1;paint-order:markers stroke fill" />
  </g>
</svg>
