<?xml version="1.0" encoding="UTF-8" standalone="no"?>
<!-- Created with Inkscape (http://www.inkscape.org/) -->

<svg
   xmlns:dc="http://purl.org/dc/elements/1.1/"
   xmlns:cc="http://creativecommons.org/ns#"
   xmlns:rdf="http://www.w3.org/1999/02/22-rdf-syntax-ns#"
   xmlns:svg="http://www.w3.org/2000/svg"
   xmlns="http://www.w3.org/2000/svg"
   xmlns:sodipodi="http://sodipodi.sourceforge.net/DTD/sodipodi-0.dtd"
   xmlns:inkscape="http://www.inkscape.org/namespaces/inkscape"
   width="1280"
   height="480"
   viewBox="0 0 338.66666 127"
   version="1.1"
   id="svg8"
   inkscape:version="0.92.4 (5da689c313, 2019-01-14)"
   sodipodi:docname="immer logo_white.svg"
   inkscape:export-filename="C:\Users\Founder\Desktop\immer\immer logo_grey.png"
   inkscape:export-xdpi="300"
   inkscape:export-ydpi="300">
  <defs
     id="defs2" />
  <sodipodi:namedview
     id="base"
     pagecolor="#ffffff"
     bordercolor="#666666"
     borderopacity="1.0"
     inkscape:pageopacity="0.0"
     inkscape:pageshadow="2"
     inkscape:zoom="0.7"
     inkscape:cx="698.99583"
     inkscape:cy="307.16806"
     inkscape:document-units="mm"
     inkscape:current-layer="layer1"
     showgrid="false"
     units="px"
     showguides="true"
     inkscape:guide-bbox="true"
     inkscape:window-width="1920"
     inkscape:window-height="991"
     inkscape:window-x="-9"
     inkscape:window-y="-9"
     inkscape:window-maximized="1" />
  <metadata
     id="metadata5">
    <rdf:RDF>
      <cc:Work
         rdf:about="">
        <dc:format>image/svg+xml</dc:format>
        <dc:type
           rdf:resource="http://purl.org/dc/dcmitype/StillImage" />
        <dc:title></dc:title>
      </cc:Work>
    </rdf:RDF>
  </metadata>
  <g
     inkscape:label="Layer 1"
     inkscape:groupmode="layer"
     id="layer1"
     transform="translate(0,-169.99998)">
    <text
       xml:space="preserve"
       style="font-style:normal;font-variant:normal;font-weight:normal;font-stretch:normal;font-size:86.70230865px;line-height:1.25;font-family:'Ink Free';-inkscape-font-specification:'Ink Free';letter-spacing:0px;word-spacing:0px;fill:#000000;fill-opacity:1;stroke:none;stroke-width:1.80629802"
       x="66.247986"
       y="417.68854"
       id="text884"><tspan
         sodipodi:role="line"
         id="tspan882"
         x="66.247986"
         y="417.68854"
         style="font-style:normal;font-variant:normal;font-weight:normal;font-stretch:normal;font-family:OldSansBlack;-inkscape-font-specification:OldSansBlack;stroke-width:1.80629802">immer</tspan></text>
    <path
       inkscape:connector-curvature="0"
       id="path886"
       style="font-style:normal;font-variant:normal;font-weight:normal;font-stretch:normal;font-size:86.70230865px;line-height:1.25;font-family:OldSansBlack;-inkscape-font-specification:OldSansBlack;letter-spacing:0px;word-spacing:0px;fill:#ffffff;fill-opacity:1;stroke:none;stroke-width:2.13236809"
       d="M 36.728705,275.38265 H 51.672341 V 219.90696 H 36.728705 Z"
       sodipodi:nodetypes="ccccc" />
    <path
       inkscape:connector-curvature="0"
       id="path888"
       style="font-style:normal;font-variant:normal;font-weight:normal;font-stretch:normal;font-size:86.70230865px;line-height:1.25;font-family:OldSansBlack;-inkscape-font-specification:OldSansBlack;letter-spacing:0px;word-spacing:0px;fill:#ffffff;fill-opacity:1;stroke:none;stroke-width:2.13236809"
       d="m 123.15039,275.38265 h 14.94363 v -39.91793 q 0,-3.27532 -0.92119,-6.24358 -0.81881,-2.96826 -2.66119,-5.22004 -1.74001,-2.35413 -4.40121,-3.68473 -2.66119,-1.43294 -6.24357,-1.43294 -5.52709,0 -9.82595,1.74001 -4.29885,1.63765 -8.18829,5.32239 -2.25178,-3.58239 -5.83416,-5.32239 -3.582376,-1.74001 -7.778882,-1.74001 -4.401209,0 -7.881236,1.22823 -3.377663,1.22825 -6.652988,3.99179 v -4.19649 H 63.785258 v 55.47569 h 14.943641 v -38.8944 q 0.716468,-0.61412 1.842364,-1.5353 1.125884,-0.92118 2.354131,-1.63766 1.330597,-0.81883 2.661195,-1.3306 1.330598,-0.61412 2.456494,-0.61412 2.865897,0 4.094144,1.5353 1.330597,1.53531 1.330597,4.29886 v 38.17792 h 14.943636 v -38.8944 q 0.71647,-0.61412 1.84237,-1.5353 1.12588,-0.92118 2.45648,-1.63766 1.3306,-0.81883 2.55884,-1.3306 1.3306,-0.61412 2.35413,-0.61412 2.86591,0 4.19651,1.5353 1.3306,1.53531 1.3306,4.29886 z" />
    <path
       inkscape:connector-curvature="0"
       id="path890"
       style="font-style:normal;font-variant:normal;font-weight:normal;font-stretch:normal;font-size:86.70230865px;line-height:1.25;font-family:OldSansBlack;-inkscape-font-specification:OldSansBlack;letter-spacing:0px;word-spacing:0px;fill:#ffffff;fill-opacity:1;stroke:none;stroke-width:2.13236809"
       d="m 208.51175,275.38265 h 14.94364 v -39.91793 q 0,-3.27532 -0.92119,-6.24358 -0.81882,-2.96826 -2.6612,-5.22004 -1.74,-2.35413 -4.4012,-3.68473 -2.66119,-1.43294 -6.24358,-1.43294 -5.52709,0 -9.82595,1.74001 -4.29885,1.63765 -8.18829,5.32239 -2.25178,-3.58239 -5.83416,-5.32239 -3.58237,-1.74001 -7.77888,-1.74001 -4.40121,0 -7.88124,1.22823 -3.37766,1.22825 -6.65298,3.99179 v -4.19649 h -13.9201 v 55.47569 h 14.94364 v -38.8944 q 0.71647,-0.61412 1.84236,-1.5353 1.12589,-0.92118 2.35413,-1.63766 1.3306,-0.81883 2.6612,-1.3306 1.3306,-0.61412 2.45649,-0.61412 2.8659,0 4.09415,1.5353 1.3306,1.53531 1.3306,4.29886 v 38.17792 h 14.94364 v -38.8944 q 0.71646,-0.61412 1.84236,-1.5353 1.12588,-0.92118 2.45648,-1.63766 1.3306,-0.81883 2.55885,-1.3306 1.33059,-0.61412 2.35413,-0.61412 2.86591,0 4.1965,1.5353 1.3306,1.53531 1.3306,4.29886 z" />
    <path
       inkscape:connector-curvature="0"
       id="path892"
       style="font-style:normal;font-variant:normal;font-weight:normal;font-stretch:normal;font-size:86.70230865px;line-height:1.25;font-family:OldSansBlack;-inkscape-font-specification:OldSansBlack;letter-spacing:0px;word-spacing:0px;fill:#ffffff;fill-opacity:1;stroke:none;stroke-width:2.13236809"
       d="m 267.56822,273.74498 q 2.8659,-1.33059 5.32239,-3.58237 2.55885,-2.35413 5.01533,-6.03886 l -11.0542,-6.96006 q -2.25178,2.96826 -4.91297,4.91298 -2.55885,1.84236 -6.44828,1.84236 -3.07061,0 -4.91298,-1.12588 -1.84237,-1.1259 -2.96825,-2.96826 -1.02355,-1.84236 -1.53531,-4.19651 -0.40942,-2.35413 -0.71647,-4.81061 h 32.13904 V 243.653 q 0,-5.42474 -1.94471,-9.82595 -1.84237,-4.40121 -4.91298,-7.88122 -6.34593,-7.0624 -16.06953,-7.0624 -6.34593,0 -10.95184,2.35413 -4.50356,2.35413 -7.47182,6.34592 -2.96826,3.88944 -4.4012,9.10948 -1.3306,5.22004 -1.3306,10.95184 0,5.62945 1.3306,10.84949 1.43294,5.11768 4.29885,9.10947 2.8659,3.9918 7.36946,6.44829 4.50356,2.35413 10.74714,2.35413 7.98359,0 13.40833,-2.6612 z m -6.65299,-40.53204 q 2.25178,2.55884 2.55885,6.75533 h -18.01425 q 0.30706,-1.94471 0.81883,-3.68472 0.61412,-1.74002 1.63765,-2.96826 1.02354,-1.3306 2.55884,-2.04707 1.63767,-0.71648 3.9918,-0.71648 4.09414,0 6.44828,2.6612 z" />
    <path
       inkscape:connector-curvature="0"
       id="path894"
       style="font-style:normal;font-variant:normal;font-weight:normal;font-stretch:normal;font-size:86.70230865px;line-height:1.25;font-family:OldSansBlack;-inkscape-font-specification:OldSansBlack;letter-spacing:0px;word-spacing:0px;fill:#ffffff;fill-opacity:1;stroke:none;stroke-width:2.13236809"
       d="m 310.86382,234.44118 3.07061,0.2047 v -15.76245 q -4.91298,0 -8.70007,1.63765 -3.68473,1.63766 -6.44827,5.7318 v -6.34592 h -13.92011 v 55.47569 h 14.94364 V 241.913 q 1.02353,-2.25179 4.19651,-4.81062 3.48001,-2.76356 6.85769,-2.6612 z" />
    <g
       id="g946"
       transform="matrix(1.1805184,0,0,1.1805184,-54.564593,-105.8072)">
      <path
         sodipodi:nodetypes="ccccc"
         inkscape:connector-curvature="0"
         id="path902"
         style="font-style:normal;font-variant:normal;font-weight:normal;font-stretch:normal;font-size:86.70230865px;line-height:1.25;font-family:OldSansBlack;-inkscape-font-specification:OldSansBlack;letter-spacing:0px;word-spacing:0px;fill:#000000;fill-opacity:1;stroke:none;stroke-width:1.52098989"
         d="M 45.747784,201.73853 H 56.260867 V 191.66349 H 45.747784 Z" />
      <g
         transform="translate(0.1765055)"
         id="g936">
        <g
           id="g922">
          <path
             inkscape:connector-curvature="0"
             id="path878"
             style="font-style:normal;font-variant:normal;font-weight:normal;font-stretch:normal;font-size:17.81583214px;line-height:1.25;font-family:OldSansBlack;-inkscape-font-specification:OldSansBlack;letter-spacing:0px;word-spacing:0px;fill:#000000;fill-opacity:1;stroke:none;stroke-width:0.37116316"
             d="m 40.552166,204.16585 h 4.560853 v -1.4609 h -2.244795 v -12.00787 h 2.244795 v -1.4609 h -4.560853 z" />
          <path
             inkscape:connector-curvature="0"
             id="path880"
             style="font-style:normal;font-variant:normal;font-weight:normal;font-stretch:normal;font-size:17.81583214px;line-height:1.25;font-family:OldSansBlack;-inkscape-font-specification:OldSansBlack;letter-spacing:0px;word-spacing:0px;fill:#000000;fill-opacity:1;stroke:none;stroke-width:0.5462442"
             d="m 34.336519,207.71943 h 6.66771 v -2.16439 h -3.281763 v -17.79013 h 3.281763 v -2.16437 h -6.66771 z" />
        </g>
        <g
           id="g928"
           transform="matrix(-1,0,0,1,101.65564,0)">
          <path
             d="m 40.552166,204.16585 h 4.560853 v -1.4609 h -2.244795 v -12.00787 h 2.244795 v -1.4609 h -4.560853 z"
             style="font-style:normal;font-variant:normal;font-weight:normal;font-stretch:normal;font-size:17.81583214px;line-height:1.25;font-family:OldSansBlack;-inkscape-font-specification:OldSansBlack;letter-spacing:0px;word-spacing:0px;fill:#000000;fill-opacity:1;stroke:none;stroke-width:0.37116316"
             id="path924"
             inkscape:connector-curvature="0" />
          <path
             d="m 34.336519,207.71943 h 6.66771 v -2.16439 h -3.281763 v -17.79013 h 3.281763 v -2.16437 h -6.66771 z"
             style="font-style:normal;font-variant:normal;font-weight:normal;font-stretch:normal;font-size:17.81583214px;line-height:1.25;font-family:OldSansBlack;-inkscape-font-specification:OldSansBlack;letter-spacing:0px;word-spacing:0px;fill:#000000;fill-opacity:1;stroke:none;stroke-width:0.5462442"
             id="path926"
             inkscape:connector-curvature="0" />
        </g>
      </g>
    </g>
    <g
       id="g886"
       transform="matrix(0,-0.3688117,0.3688117,0,-9.8404378,240.37101)"
       style="fill:#ffffff">
      <path
         sodipodi:nodetypes="ssssssssss"
         style="fill-rule:evenodd;stroke-width:0.17663442;fill:#ffffff"
         inkscape:connector-curvature="0"
         d="m 89.878226,109.35955 c -20.51373,15.29954 -24.74685,44.37433 -9.447323,64.88805 15.299526,20.51373 44.374317,24.74685 64.888047,9.44733 20.51373,-15.29953 24.74685,-44.37433 9.44733,-64.88805 -15.29953,-20.51373 -44.37432,-24.746846 -64.888054,-9.44733 z m 7.392103,9.9114 c -15.042642,11.21909 -18.147341,32.54164 -6.928039,47.58456 11.2193,15.04292 32.54164,18.14733 47.58457,6.92803 15.04292,-11.21931 18.14734,-32.54164 6.92803,-47.58457 -11.2193,-15.04293 -32.54162,-18.14732 -47.584561,-6.92802 z"
         id="path6424" />
      <path
         sodipodi:nodetypes="sssss"
         style="fill-rule:evenodd;stroke-width:0.11629341;fill:#ffffff"
         inkscape:connector-curvature="0"
         d="m 117.59859,135.33401 c -6.17855,0 -11.19323,5.01469 -11.19323,11.19324 0,6.17855 5.01468,11.19323 11.19323,11.19323 6.17856,0 11.19325,-5.01468 11.19325,-11.19323 0,-6.17855 -5.01469,-11.19324 -11.19325,-11.19324 z"
         id="path6424-9" />
      <path
         style="stroke-width:0.13217434;fill:#ffffff"
         id="path6901-3"
         d="m 117.59859,171.46962 c -0.006,-0.66794 -0.006,-4.90985 0,-5.92087 10.79849,0 19.58294,-8.78444 19.58294,-19.58296 0,-10.79851 -8.78445,-19.58296 -19.58294,-19.58296 -0.006,-1.00736 -0.006,-4.44958 0,-5.92086 14.06335,-0.002 25.50433,11.44087 25.50433,25.50435 0,14.06349 -11.44127,25.50436 -25.50433,25.50436 z"
         inkscape:connector-curvature="0"
         sodipodi:nodetypes="ccsccscc" />
    </g>
  </g>
</svg>
