<svg width="18" height="18" viewBox="0 0 18 18" fill="none" xmlns="http://www.w3.org/2000/svg">
<g id="Group 12">
<circle id="Ellipse 14" cx="9" cy="9" r="8" fill="black" fill-opacity="0.45" stroke="#FF6C00" stroke-width="2"/>
<path id="Vector" d="M7.43422 13.8339C7.48589 13.8377 7.53672 13.8194 7.57287 13.784C7.60902 13.7487 7.62678 13.7 7.62137 13.651C7.55703 13.0928 7.63149 12.528 7.83881 12.0021C8.04612 11.4763 8.38052 11.0039 8.81507 10.6232C8.92089 10.5298 9.08465 10.5298 9.19046 10.6232C9.62649 11.0053 9.96164 11.4796 10.1688 12.0076C10.376 12.5356 10.4494 13.1026 10.3831 13.6625C10.3778 13.7089 10.3932 13.7552 10.4256 13.7902C10.4581 13.8252 10.5045 13.8456 10.5536 13.8465C14.7947 13.2155 13.9497 9.81219 13.3441 8.29157V8.29164C13.3177 8.22379 13.27 8.16525 13.2073 8.12402C13.1448 8.08286 13.0703 8.06093 12.9942 8.0613C12.8705 8.06071 12.7549 8.11918 12.6864 8.21697C12.2913 8.75389 11.7574 9.18525 11.136 9.4695C11.5789 5.68344 9.11178 4.12488 7.92475 3.50852C7.84573 3.46553 7.75281 3.45167 7.66375 3.46949C7.57469 3.48739 7.49567 3.53574 7.44169 3.60536C7.38769 3.67497 7.36259 3.76103 7.37109 3.84715C7.48185 5.41733 5.93152 7.49443 5.0257 8.56489C4.3883 9.30077 4.08048 10.2449 4.16861 11.1941C4.41555 13.4047 6.68347 13.7728 7.43409 13.8338L7.43422 13.8339Z" fill="#FF6C00"/>
</g>
</svg>
