<svg width="14" height="15" viewBox="0 0 14 15" fill="none" xmlns="http://www.w3.org/2000/svg">
<path id="Vector" d="M4.73837 14.9818C4.81301 14.9872 4.88642 14.9608 4.93864 14.9097C4.99085 14.8586 5.01652 14.7883 5.00871 14.7175C4.91577 13.9112 5.02332 13.0955 5.32278 12.3359C5.62223 11.5763 6.10524 10.894 6.73293 10.344C6.88579 10.2092 7.12232 10.2092 7.27516 10.344C7.90499 10.896 8.3891 11.5811 8.68834 12.3438C8.98768 13.1064 9.09367 13.9254 8.99785 14.7342C8.99015 14.8012 9.01246 14.8681 9.05932 14.9186C9.10618 14.9692 9.17324 14.9987 9.24409 15C15.3702 14.0885 14.1497 9.17263 13.2748 6.97617V6.97628C13.2368 6.87826 13.1678 6.7937 13.0773 6.73415C12.987 6.6747 12.8794 6.64302 12.7694 6.64355C12.5908 6.6427 12.4237 6.72716 12.3248 6.86841C11.7541 7.64396 10.9829 8.26704 10.0854 8.67763C10.7252 3.20887 7.16151 0.95762 5.44691 0.0673191C5.33277 0.00522325 5.19855 -0.0148017 5.06991 0.010947C4.94127 0.0368021 4.82713 0.106631 4.74916 0.207193C4.67117 0.307752 4.63491 0.432049 4.64718 0.55645C4.80718 2.82449 2.56781 5.82474 1.25939 7.37097C0.338714 8.4339 -0.105917 9.79765 0.0213856 11.1687C0.378073 14.3618 3.65395 14.8935 4.73818 14.9817L4.73837 14.9818Z" fill="#FF6C00"/>
</svg>
