<svg width="20" height="14" viewBox="0 0 20 14" fill="none" xmlns="http://www.w3.org/2000/svg">
<g id="Group 11">
<g id="Group 11_2">
<path id="Vector" d="M20 2.75C20 2.02066 19.6972 1.32108 19.1586 0.805455C18.6198 0.289634 17.8892 0 17.1273 0H2.87268C2.1108 0 1.38022 0.289653 0.841388 0.805455C0.30276 1.32108 0 2.02066 0 2.75V11C0 11.7293 0.302776 12.4289 0.841388 12.9445C1.38022 13.4604 2.1108 13.75 2.87268 13.75H17.1273C17.8892 13.75 18.6198 13.4603 19.1586 12.9445C19.6972 12.4289 20 11.7293 20 11V2.75ZM18.851 2.75L18.8508 11C18.8508 11.21 18.809 11.4182 18.7274 11.6132L13.5566 5.70615L18.7936 2.3375C18.8308 2.47197 18.8503 2.61066 18.8511 2.74992L18.851 2.75ZM17.1273 1.0999C17.4932 1.10105 17.8495 1.21385 18.1443 1.42178L10.0002 6.66299L1.85616 1.43799C2.14872 1.2241 2.50518 1.10556 2.87309 1.09961L17.1273 1.0999ZM1.2727 11.6049C1.19215 11.4125 1.15027 11.2072 1.14927 10.9999V2.7499C1.15027 2.60776 1.17051 2.46639 1.20958 2.32923L6.43786 5.68983L1.2727 11.6049ZM2.87273 12.65C2.58358 12.6496 2.29902 12.5796 2.04555 12.4464L7.39438 6.32473L9.69257 7.79313C9.88634 7.91763 10.1394 7.91763 10.3332 7.79313L12.6314 6.32473L17.9571 12.4381C17.7034 12.5712 17.4189 12.6412 17.1297 12.6416L2.87273 12.65Z" fill="white"/>
</g>
</g>
</svg>
