<svg width="22" height="20" viewBox="0 0 22 20" fill="none" xmlns="http://www.w3.org/2000/svg">
<path id="Vector" d="M20.3079 6.82006V5.83331C20.3056 5.31809 20.1419 4.81616 19.839 4.39609C19.536 3.97601 19.1088 3.65837 18.6155 3.48662V2.50001C18.6155 1.83694 18.3481 1.20104 17.872 0.732288C17.396 0.263394 16.7503 0 16.0771 0H5.92309C5.24981 0 4.60413 0.263394 4.12816 0.732288C3.65205 1.20104 3.3846 1.83694 3.3846 2.50001V3.48662C2.89134 3.65836 2.46411 3.97601 2.16112 4.39609C1.85826 4.81616 1.69451 5.31809 1.69223 5.83331V6.82006C1.19896 6.9918 0.771737 7.30931 0.46875 7.72938C0.165887 8.14946 0.00213958 8.65153 0 9.16675V17.5C0 18.1631 0.267448 18.799 0.743415 19.2677C1.21953 19.7366 1.86521 20 2.53849 20H19.4615C20.1348 20 20.7805 19.7366 21.2566 19.2677C21.7326 18.799 22 18.1631 22 17.5V9.16675C21.9979 8.65153 21.8341 8.14946 21.5312 7.72938C21.2282 7.30931 20.801 6.99181 20.3078 6.82006H20.3079ZM5.92302 1.66683H16.077C16.3014 1.66683 16.5167 1.75458 16.6753 1.91083C16.834 2.06708 16.9231 2.27912 16.9231 2.50012V3.3334H5.07705V2.50012C5.07705 2.27913 5.16615 2.06708 5.32481 1.91083C5.48346 1.75458 5.69876 1.66683 5.92317 1.66683H5.92302ZM4.23065 5.00013H17.7695C17.9939 5.00013 18.2091 5.08788 18.3677 5.24427C18.5265 5.40052 18.6156 5.61245 18.6156 5.83341V6.66684H3.38467V5.83341C3.38467 5.61243 3.47377 5.40052 3.63257 5.24427C3.79123 5.08788 4.00642 5.00013 4.23078 5.00013H4.23065ZM20.308 17.5002C20.308 17.7212 20.2187 17.9332 20.0601 18.0895C19.9014 18.2457 19.6862 18.3335 19.4617 18.3335H2.53871C2.31418 18.3335 2.09901 18.2457 1.94035 18.0895C1.7817 17.9332 1.69245 17.7212 1.69245 17.5002V9.16693C1.69245 8.9458 1.7817 8.73389 1.94035 8.57764C2.09901 8.42139 2.3142 8.3335 2.53871 8.3335H19.4617C19.6863 8.3335 19.9014 8.42139 20.0601 8.57764C20.2187 8.73389 20.308 8.94582 20.308 9.16693V17.5002ZM14.3848 13.3334C14.3848 13.5545 14.2957 13.7664 14.1371 13.9227C13.9784 14.0789 13.7631 14.1668 13.5387 14.1668H11.8463V15.8335V15.8334C11.8463 16.1311 11.6851 16.4062 11.4234 16.5551C11.1616 16.7039 10.8389 16.7039 10.5771 16.5551C10.3153 16.4062 10.1541 16.1311 10.1541 15.8334V14.1668H8.46173C8.15944 14.1668 7.88009 14.0079 7.72894 13.7501C7.57779 13.4923 7.57779 13.1746 7.72894 12.9168C7.88009 12.659 8.15943 12.5001 8.46173 12.5001H10.1541V10.8334C10.1541 10.5356 10.3153 10.2605 10.5771 10.1117C10.8389 9.96282 11.1616 9.96282 11.4234 10.1117C11.6851 10.2605 11.8463 10.5356 11.8463 10.8334V12.5001H13.5387C13.7631 12.5001 13.9784 12.5878 14.1371 12.7442C14.2957 12.9005 14.3848 13.1124 14.3848 13.3334Z" fill="white"/>
</svg>
