<svg width="14" height="14" viewBox="0 0 14 14" fill="none" xmlns="http://www.w3.org/2000/svg">
<g id="Group">
<g id="Vector">
<path d="M13.2998 7.70002C13.1141 7.70002 12.936 7.77385 12.8048 7.9051C12.6735 8.03635 12.5998 8.21437 12.5998 8.4001V10.5001C12.5998 11.0569 12.3786 11.5911 11.9847 11.985C11.5909 12.3788 11.0567 12.6001 10.4999 12.6001H3.49984C2.94299 12.6001 2.40885 12.3788 2.01499 11.985C1.62113 11.5911 1.39989 11.0569 1.39989 10.5001V3.49991C1.39989 2.94305 1.62113 2.4089 2.01499 2.01503C2.40885 1.62117 2.94299 1.39992 3.49984 1.39992H6.99985C7.24993 1.39992 7.48101 1.26656 7.60605 1.05C7.73109 0.833437 7.73109 0.566488 7.60605 0.349919C7.48101 0.13335 7.24993 0 6.99985 0H3.49984C2.57196 0.00105468 1.68242 0.370199 1.02631 1.02633C0.370191 1.68246 0.00104998 2.57201 0 3.49991V10.5001C0.00105466 11.428 0.370191 12.3175 1.02631 12.9737C1.68242 13.6298 2.57196 13.999 3.49984 14H10.4999C11.4277 13.9989 12.3173 13.6298 12.9734 12.9737C13.6295 12.3175 13.9987 11.428 13.9997 10.5001V8.4001C13.9997 8.21435 13.926 8.03635 13.7948 7.9051C13.6635 7.77385 13.4854 7.70002 13.2998 7.70002Z" fill="white"/>
<path d="M3.5071 7.79951C3.52831 7.94705 3.59604 8.08404 3.70057 8.19044C3.8051 8.29685 3.94092 8.36716 4.0881 8.39095C4.12513 8.39704 4.16251 8.40009 4.20013 8.40009C4.3302 8.40009 4.4577 8.36388 4.56831 8.29556C4.67905 8.22712 4.76846 8.12927 4.82659 8.0129C5.69528 6.27476 8.00651 6.17049 9.09999 6.23564V7.7C9.09999 7.88562 9.17381 8.06363 9.30506 8.19488C9.43631 8.32613 9.61432 8.39984 9.79993 8.39984C9.98553 8.39984 10.1635 8.32613 10.2948 8.19488L13.7948 4.69479C13.9357 4.55405 14.0098 4.36011 13.9989 4.16124C13.9879 3.96249 13.8929 3.77769 13.7374 3.65322L10.2374 0.853267C10.0993 0.742759 9.92472 0.688618 9.74847 0.701626C9.57211 0.714634 9.40735 0.793852 9.28699 0.923344C9.16676 1.05295 9.09985 1.22323 9.09997 1.39995V2.74257C7.14005 2.65081 5.64195 3.11709 4.66127 4.12784C3.77101 5.13131 3.35113 6.467 3.5071 7.79951Z" fill="white"/>
</g>
</g>
</svg>
