<svg width="9" height="9" viewBox="0 0 9 9" fill="none" xmlns="http://www.w3.org/2000/svg">
<path id="Vector" d="M4.5 0C2.01789 0 0 2.01789 0 4.5C0 6.98211 2.01789 9 4.5 9C6.98211 9 9 6.98211 9 4.5C9 2.01789 6.98211 0 4.5 0ZM6.45158 3.70421L4.40526 6.13895C4.32002 6.24316 4.19684 6.29999 4.06421 6.29999C3.93158 6.29999 3.8084 6.24316 3.72316 6.13895L2.54845 4.73686C2.38741 4.5474 2.41583 4.27263 2.60529 4.11158C2.79474 3.95054 3.06951 3.97895 3.23057 4.16841L4.0642 5.16317L5.76946 3.1358C5.93051 2.94634 6.20529 2.92738 6.39474 3.07896C6.5842 3.24001 6.61262 3.51479 6.45158 3.70424L6.45158 3.70421Z" fill="#FF6C00"/>
</svg>
